<svg width="40" height="40" viewBox="0 0 40 40" fill="none" xmlns="http://www.w3.org/2000/svg">
<path d="M34.167 12.1333V8.33333C34.167 6.5 32.667 5 30.8337 5H7.50033C5.65033 5 4.16699 6.5 4.16699 8.33333V31.6667C4.16699 33.5 5.65033 35 7.50033 35H30.8337C32.667 35 34.167 33.5 34.167 31.6667V27.8667C35.1503 27.2833 35.8337 26.2333 35.8337 25V15C35.8337 13.7667 35.1503 12.7167 34.167 12.1333ZM32.5003 15V25H20.8337V15H32.5003ZM7.50033 31.6667V8.33333H30.8337V11.6667H20.8337C19.0003 11.6667 17.5003 13.1667 17.5003 15V25C17.5003 26.8333 19.0003 28.3333 20.8337 28.3333H30.8337V31.6667H7.50033Z" fill="#EDA13A"/>
<path d="M25.8337 22.5C27.2144 22.5 28.3337 21.3807 28.3337 20C28.3337 18.6193 27.2144 17.5 25.8337 17.5C24.4529 17.5 23.3337 18.6193 23.3337 20C23.3337 21.3807 24.4529 22.5 25.8337 22.5Z" fill="#EDA13A"/>
</svg>
