<svg width="44" height="46" viewBox="0 0 44 46" fill="none" xmlns="http://www.w3.org/2000/svg">
<g clip-path="url(#clip0_534_1168)">
<path d="M20.0134 0H1.9866C0.889431 0 0 0.889431 0 1.9866V42.0134C0 43.1106 0.889431 44 1.9866 44H20.0134C21.1106 44 22 43.1106 22 42.0134V1.9866C22 0.889431 21.1106 0 20.0134 0Z" fill="#F7E0C5"/>
<path d="M1.98 0V44H1.9866C0.889533 44 0 43.1105 0 42.0134V1.9866C0 0.889533 0.889533 0 1.9866 0H1.98Z" fill="#EFCBA1"/>
<path d="M5.50014 2.85986H2.64014V5.71986H5.50014V2.85986Z" fill="#E29744"/>
<path d="M19.2135 9.5332H2.64014V12.3932H19.2135V9.5332Z" fill="#E29744"/>
<path d="M19.2135 14.1533H2.64014V17.0133H19.2135V14.1533Z" fill="#E29744"/>
<path d="M19.2135 19.2866H2.64014V22.1466H19.2135V19.2866Z" fill="#E29744"/>
<path d="M19.2135 24.3467H2.64014V27.2067H19.2135V24.3467Z" fill="#E29744"/>
<path d="M19.2135 2.85986H16.3535V5.71986H19.2135V2.85986Z" fill="#E29744"/>
<path d="M10.9263 45.98C15.0574 45.98 18.4063 42.6311 18.4063 38.5C18.4063 34.3689 15.0574 31.02 10.9263 31.02C6.7952 31.02 3.44629 34.3689 3.44629 38.5C3.44629 42.6311 6.7952 45.98 10.9263 45.98Z" fill="#E29744"/>
<path d="M29.2598 8.35986L36.5198 12.6132V20.6065L29.2598 16.5732V8.35986Z" fill="#F7E0C5"/>
<path d="M29.2598 8.36018L36.5198 4.18018L43.9998 8.36018L36.5198 12.6135L29.2598 8.36018Z" fill="#E29744"/>
<path d="M44 8.35986L36.52 12.6015V20.5948L44 16.4999V8.35986Z" fill="#E8B576"/>
<path d="M33.0733 13.2734H22V15.3268H33.0733V13.2734Z" fill="#E29744"/>
<path d="M29.2598 27.0601L36.5198 31.3134V39.3067L29.2598 35.2734V27.0601Z" fill="#F7E0C5"/>
<path d="M29.2598 27.0599L36.5198 22.8799L43.9998 27.0599L36.5198 31.3132L29.2598 27.0599Z" fill="#E29744"/>
<path d="M44 27.0601L36.52 31.3017V39.295L44 35.2001V27.0601Z" fill="#E8B576"/>
<path d="M33.0733 31.9731H22V34.0265H33.0733V31.9731Z" fill="#E29744"/>
<path d="M12.3937 37.0332H9.53369V39.8932H12.3937V37.0332Z" fill="white"/>
</g>
<defs>
<clipPath id="clip0_534_1168">
<rect width="44" height="45.98" fill="white"/>
</clipPath>
</defs>
</svg>
