<svg width="45" height="39" viewBox="0 0 45 39" fill="none" xmlns="http://www.w3.org/2000/svg">
<g clip-path="url(#clip0_534_1203)">
<path d="M40.1752 0H2.50246C1.12039 0 0 1.12039 0 2.50246V29.3672C0 30.7493 1.12039 31.8697 2.50246 31.8697H40.1752C41.5573 31.8697 42.6777 30.7493 42.6777 29.3672V2.50246C42.6777 1.12039 41.5573 0 40.1752 0Z" fill="#F7E0C5"/>
<path d="M12.1938 3.32568H3.32568V6.92835H12.1938V3.32568Z" fill="#E29744"/>
<path d="M19.3067 3.32568H13.7642V6.92835H19.3067V3.32568Z" fill="#E29744"/>
<path d="M38.9825 3.32568H33.4399V6.92835H38.9825V3.32568Z" fill="#E29744"/>
<path d="M4.43359 14.3027L10.741 17.9978V24.9417L4.43359 21.4379V14.3027Z" fill="#EFCBA1"/>
<path d="M4.43359 14.3027L10.741 10.6714L17.2387 14.3027L10.741 17.9977L4.43359 14.3027Z" fill="#E29744"/>
<path d="M17.2394 14.3027L10.7417 17.9876V24.9315L17.2394 21.3741V14.3027Z" fill="#E8B576"/>
<path d="M32.2854 38.2437C39.1473 38.2437 44.71 32.681 44.71 25.8191C44.71 18.9572 39.1473 13.3945 32.2854 13.3945C25.4235 13.3945 19.8608 18.9572 19.8608 25.8191C19.8608 32.681 25.4235 38.2437 32.2854 38.2437Z" fill="#E29744"/>
<path d="M33.8149 17.4739L33.9516 17.363C34.2186 17.1468 34.2601 16.7561 34.044 16.4891C33.8287 16.2222 33.4371 16.1806 33.1701 16.3968L31.8593 17.4563C31.7438 17.5496 31.6736 17.6771 31.645 17.812C31.6431 17.8193 31.6413 17.8267 31.6403 17.8351C31.6357 17.8637 31.633 17.8914 31.632 17.9191C31.632 17.9293 31.6293 17.9385 31.6293 17.9487C31.6293 17.957 31.6311 17.9644 31.632 17.9727C31.633 17.9893 31.6348 18.005 31.6367 18.0216C31.6403 18.0512 31.645 18.0798 31.6524 18.1085C31.6533 18.1113 31.6542 18.1131 31.6551 18.1168C31.6856 18.224 31.742 18.32 31.8186 18.3948L32.8274 19.6419C32.9502 19.7934 33.1304 19.8729 33.3114 19.8729C33.4481 19.8729 33.5867 19.8276 33.7013 19.7343C33.9682 19.5191 34.0098 19.1274 33.7936 18.8604L33.6735 18.7126C36.9871 19.3759 39.4914 22.307 39.4914 25.8126C39.4914 28.8047 37.6115 31.527 34.8144 32.5866C34.4938 32.7085 34.3322 33.0669 34.4541 33.3884C34.5483 33.6369 34.7848 33.7902 35.0352 33.7902C35.1081 33.7902 35.183 33.7773 35.255 33.7496C38.5316 32.508 40.7338 29.3192 40.7338 25.8136C40.7338 21.6696 37.7473 18.2119 33.814 17.4757L33.8149 17.4739ZM32.8634 33.587C32.8606 33.5657 32.8569 33.5445 32.8523 33.5233C32.8477 33.5076 32.8431 33.4928 32.8375 33.4771C32.8292 33.4521 32.82 33.4281 32.8089 33.405C32.8034 33.3939 32.7969 33.3838 32.7914 33.3727C32.7756 33.3459 32.7599 33.321 32.7415 33.296C32.7387 33.2923 32.7368 33.2886 32.735 33.2849L31.6754 31.975C31.4593 31.7081 31.0685 31.6665 30.8016 31.8827C30.5346 32.0988 30.493 32.4896 30.7092 32.7565L30.8348 32.9117C27.5185 32.2512 25.0114 29.3192 25.0114 25.8117C25.0114 22.7984 26.9079 20.0696 29.7309 19.0212C30.0533 18.9011 30.2168 18.5436 30.0977 18.2221C29.9785 17.9006 29.6201 17.7362 29.2986 17.8554C25.9906 19.084 23.7681 22.2811 23.7681 25.8117C23.7681 29.9529 26.7509 33.4087 30.6815 34.1477L30.5512 34.253C30.2843 34.4692 30.2427 34.8599 30.4589 35.1269C30.5817 35.2784 30.7609 35.3578 30.942 35.3578C31.0796 35.3578 31.2173 35.3126 31.3327 35.2193L32.6435 34.1597C32.6565 34.1486 32.6666 34.1357 32.6796 34.1237C32.687 34.1163 32.6953 34.1089 32.7017 34.1015C32.723 34.0794 32.7405 34.0572 32.7581 34.0332C32.7646 34.0239 32.771 34.0147 32.7775 34.0045C32.7923 33.9814 32.8052 33.9574 32.8163 33.9325C32.8218 33.9195 32.8274 33.9066 32.832 33.8937C32.8412 33.8706 32.8477 33.8466 32.8542 33.8216C32.8588 33.8059 32.8616 33.7902 32.8643 33.7736C32.8689 33.7505 32.8708 33.7265 32.8717 33.7025C32.8717 33.6923 32.8754 33.6831 32.8754 33.672C32.8754 33.6637 32.8726 33.6563 32.8726 33.648C32.8717 33.6276 32.8689 33.6064 32.8662 33.5861L32.8634 33.587Z" fill="white"/>
</g>
<defs>
<clipPath id="clip0_534_1203">
<rect width="44.71" height="38.2436" fill="white"/>
</clipPath>
</defs>
</svg>
