<svg width="30" height="30" viewBox="0 0 30 30" fill="none" xmlns="http://www.w3.org/2000/svg">
<path d="M19.1628 4.28132V11.5843H24.2369C24.4255 11.5843 24.6009 11.6852 24.6965 11.8473C24.7842 11.996 24.8081 12.2378 24.6965 12.3839C24.3857 12.793 24.0749 13.2048 23.764 13.6139C23.0175 14.5995 22.2737 15.5851 21.5272 16.568C20.6293 17.7555 19.7287 18.943 18.8308 20.1305C18.0524 21.1586 17.2767 22.184 16.4983 23.2121C16.1184 23.7142 15.7412 24.2137 15.3613 24.7157C15.356 24.7237 15.3506 24.729 15.3453 24.737C15.2284 24.8911 15.0903 25 14.8857 25C14.6812 25 14.543 24.8911 14.4262 24.737C14.1153 24.3279 13.8045 23.9161 13.4937 23.507C12.7472 22.5214 12.0033 21.5358 11.2568 20.5529C10.3589 19.3654 9.45834 18.1779 8.56042 16.9904C7.78204 15.9623 7.00632 14.9369 6.22794 13.9088C5.85071 13.4093 5.44691 12.9205 5.09092 12.4051C5.08561 12.3972 5.0803 12.3919 5.07498 12.3839C4.96341 12.2378 4.98732 11.996 5.07498 11.8473C5.17062 11.6852 5.34595 11.5843 5.53457 11.5843H10.6086V4.28132C10.6086 3.99441 10.853 3.75 11.14 3.75H18.6315C18.9211 3.76328 19.1628 3.98378 19.1628 4.28132Z" fill="#93D056"/>
<path d="M25.3028 24.4682C25.2895 24.7551 25.069 24.9995 24.7715 24.9995C25.0584 25.0128 25.3028 24.7471 25.3028 24.4682Z" fill="#93D056"/>
</svg>
