<svg width="37" height="50" viewBox="0 0 37 50" fill="none" xmlns="http://www.w3.org/2000/svg">
<g clip-path="url(#clip0_534_1219)">
<path d="M29.5373 0.672527C25.4286 -1.11071 20.6521 0.774582 18.8688 4.88232C17.0856 8.99007 18.9709 13.7676 23.0786 15.5508C27.1873 17.334 31.9638 15.4487 33.7471 11.341C35.5303 7.23234 33.645 2.45577 29.5373 0.672527ZM23.9497 13.5452C20.9491 12.2431 19.5723 8.75497 20.8753 5.75344C22.1783 2.75191 25.6655 1.37598 28.6671 2.67901C31.6686 3.98205 33.0445 7.46926 31.7415 10.4708C30.4385 13.4723 26.9513 14.8482 23.9497 13.5452Z" fill="#64CFFF"/>
<path d="M19.3332 48.4938L1.90723 40.9299C0.302586 40.2337 -0.433674 38.3675 0.262492 36.7629L9.59512 15.2619C9.96325 14.4127 10.6849 13.7675 11.5697 13.496L23.9194 8.89895C25.411 8.4397 27.0157 9.13586 27.6991 10.5391L32.7754 22.6992C33.1809 23.5312 33.2019 24.4989 32.8338 25.3472L23.5011 46.8482C22.805 48.4528 20.9388 49.1891 19.3342 48.4929L19.3332 48.4938Z" fill="#F7E0C5"/>
<path d="M28.7635 49.9526L24.6484 49.2373L34.782 25.8911C35.1857 24.9608 35.162 23.901 34.7182 22.9889L32.1158 16.7544L35.7579 21.7187C36.3475 22.4322 36.5953 23.368 36.4377 24.2792L32.4265 47.3729C32.1267 49.096 30.4866 50.2514 28.7635 49.9517V49.9526Z" fill="#E29744"/>
<path d="M27.8716 21.7017L15.6492 16.3974C14.0847 15.7184 12.266 16.4363 11.587 18.0008L4.21497 34.9877C3.536 36.5523 4.25388 38.371 5.8184 39.05L18.0408 44.3543C19.6053 45.0332 21.424 44.3154 22.103 42.7508L29.475 25.7639C30.154 24.1994 29.4361 22.3806 27.8716 21.7017Z" fill="#E29744"/>
<path d="M12.1471 34.8073C11.5867 34.2241 11.2077 33.5717 11.0109 32.8473C10.814 32.1238 10.8496 31.3784 11.1166 30.6111L11.163 30.4781L12.7658 31.1734L12.7367 31.2918C12.6337 31.7137 12.6228 32.1383 12.7048 32.5639C12.7859 32.9894 12.9964 33.3931 13.3344 33.7731C13.6725 34.1539 14.1791 34.4902 14.8553 34.7836C15.5314 35.077 16.1464 35.2328 16.6485 35.2283C17.1506 35.2237 17.5652 35.1025 17.8951 34.8665C18.224 34.6296 18.4728 34.318 18.6404 33.9316L18.6441 33.9225C18.8628 33.4195 18.8837 32.932 18.7088 32.4618C18.5338 31.9916 18.039 31.4485 17.2271 30.8335L15.9988 29.9068C15.3172 29.3919 14.7787 28.8716 14.3832 28.3468C13.9878 27.821 13.75 27.2807 13.6707 26.7239C13.5905 26.1681 13.6834 25.5858 13.9468 24.978L13.9504 24.9689C14.2621 24.2509 14.7213 23.7096 15.3282 23.3451C15.935 22.9816 16.6285 22.7948 17.4094 22.7875C18.1894 22.7802 18.9912 22.9542 19.8141 23.3114C20.6059 23.655 21.2592 24.1124 21.775 24.6819C22.2898 25.2523 22.6297 25.8847 22.7946 26.5799C22.9596 27.2752 22.9122 27.9823 22.6507 28.7012L22.5996 28.8434L20.9977 28.1481L21.0242 28.0616C21.1672 27.5978 21.1836 27.1549 21.0761 26.7321C20.9677 26.3093 20.7526 25.9275 20.4291 25.5867C20.1066 25.2459 19.6929 24.9662 19.1899 24.7475C18.594 24.4887 18.0518 24.3703 17.5606 24.3903C17.0704 24.4113 16.6558 24.5297 16.3168 24.7475C15.9779 24.9653 15.7355 25.2432 15.5888 25.5803L15.5851 25.5895C15.4548 25.8902 15.4047 26.1954 15.4348 26.5034C15.4649 26.8123 15.5961 27.1312 15.8284 27.462C16.0608 27.7928 16.4125 28.1372 16.8845 28.4953L18.1128 29.422C19.1753 30.2184 19.9088 31.0239 20.3143 31.8385C20.7198 32.6532 20.7116 33.5452 20.2906 34.5148L20.287 34.5239C19.9435 35.3157 19.445 35.8916 18.7935 36.2506C18.1411 36.6096 17.4148 36.7791 16.613 36.76C15.812 36.7409 15.012 36.5577 14.2138 36.2114C13.4155 35.8652 12.7084 35.3886 12.148 34.8064L12.1471 34.8073ZM19.887 21.5264L20.9923 22.0057L14.0652 37.9655L12.9599 37.4862L19.887 21.5264Z" fill="white"/>
<path d="M29.5373 0.672527C25.4286 -1.11071 20.6521 0.774582 18.8688 4.88232C17.0856 8.99007 18.9709 13.7676 23.0786 15.5508C27.1873 17.334 31.9638 15.4487 33.7471 11.341C35.5303 7.23234 33.645 2.45577 29.5373 0.672527ZM23.9497 13.5452C20.9491 12.2431 19.5723 8.75497 20.8753 5.75344C22.1783 2.75191 25.6655 1.37598 28.6671 2.67901C31.6686 3.98205 33.0445 7.46926 31.7415 10.4708C30.4385 13.4723 26.9513 14.8482 23.9497 13.5452Z" fill="#F7E0C5"/>
</g>
<defs>
<clipPath id="clip0_534_1219">
<rect width="36.4849" height="50" fill="white"/>
</clipPath>
</defs>
</svg>
