<svg width="46" height="29" viewBox="0 0 46 29" fill="none" xmlns="http://www.w3.org/2000/svg">
<g clip-path="url(#clip0_534_1446)">
<path d="M40.3243 17.7727C37.9676 17.7727 35.9484 19.244 35.1263 21.3181H22.7778C22.6601 21.3181 22.5639 21.2216 22.5639 21.1034V13.4039C22.5639 8.42641 26.5983 4.37866 31.555 4.37866H38.2423V7.88671C38.2423 10.8669 35.8268 13.2936 32.8559 13.2936H29.0374V17.6269H32.8559C38.207 17.6269 42.5593 13.2581 42.5593 7.88671V0.0453033H31.555C27.0457 0.0453033 23.0564 2.31047 20.6488 5.76336C20.1464 4.98139 19.5519 4.24472 18.8651 3.57502C16.5084 1.26849 13.412 0 10.1448 0H0V16.648C0 21.6136 4.02458 25.6515 8.96945 25.6515H12.268V21.3181H8.96945C6.40479 21.3181 4.31695 19.2224 4.31695 16.648V4.33336H10.1448C14.5383 4.33336 18.2489 7.96747 18.2489 12.2713V21.1034C18.2489 23.6109 20.2818 25.6515 22.7798 25.6515H35.2087C36.0779 27.6212 38.0422 29 40.3243 29C43.4069 29 45.9167 26.4807 45.9167 23.3863C45.9167 20.2919 43.4069 17.7727 40.3243 17.7727ZM40.3243 24.6666C39.6218 24.6666 39.0488 24.0915 39.0488 23.3863C39.0488 22.6812 39.6218 22.106 40.3243 22.106C41.0267 22.106 41.5997 22.6812 41.5997 23.3863C41.5997 24.0915 41.0267 24.6666 40.3243 24.6666Z" fill="#E39844"/>
</g>
<defs>
<clipPath id="clip0_534_1446">
<rect width="45.9167" height="29" fill="white"/>
</clipPath>
</defs>
</svg>
